#!OML:ASF E:\inclinewalkrobotboard\Project 1\Capture day 1\Session 1\subject1.ASF
:FULLY-SPECIFIED
:DEGREES
304
root 9.34009 16.506 0.47194 -137.133 -56.0366 -200.996
lowerback 6.6528 3.16776 3.96797
upperback 0.857021 4.4818 1.58033
thorax -2.65845 2.16698 -0.975534
lowerneck -3.51099 10.7466 3.2466
upperneck -3.42034 14.0405 -19.9004
head 1.30623 6.82334 -6.02724
rclavicle 3.02153e-014 -6.04305e-014
rhumerus -17.3966 40.8276 -102.697
rradius 96.6981
rwrist 6.32272
rhand -19.1592 -33.2549
rfingers 7.12502
rthumb 7.15148 -63.1141
lclavicle 3.02153e-014 -6.04305e-014
lhumerus -41.92 42.2691 44.3523
lradius 52.8513
lwrist 39.7929
lhand -53.5692 -32.2968
lfingers 7.12502
lthumb -26.0109 -4.0572
rfemur -37.7609 4.56971 -2.54813
rtibia 25.0064
rfoot -13.8763 -5.50475
rtoes -28.7604
lfemur -9.59662 -10.6485 -6.80388
ltibia 8.52438
lfoot -36.4971 18.558
ltoes 24.8389
305
root 9.34291 16.5067 0.471605 -137.06 -56.0092 -201.115
lowerback 6.60421 3.10001 3.82489
upperback 0.887478 4.37867 1.61986
thorax -2.61815 2.11838 -0.84371
lowerneck -3.37781 10.5427 3.43527
upperneck -3.71575 13.6998 -20.0143
head 1.18194 6.67394 -6.12894
rclavicle 4.77083e-015 3.18055e-014
rhumerus -17.434 41.0174 -102.696
rradius 96.6778
rwrist 6.34562
rhand -18.7424 -33.0387
rfingers 7.12502
rthumb 7.55378 -62.8838
lclavicle 4.77083e-015 3.18055e-014
lhumerus -42.1312 42.2344 44.23
lradius 52.9314
lwrist 39.8801
lhand -53.4549 -31.9499
lfingers 7.12502
lthumb -25.9015 -3.69423
rfemur -37.72 4.53148 -2.63051
rtibia 24.9761
rfoot -13.8622 -5.45922
rtoes -28.6312
lfemur -9.54684 -10.8423 -6.90162
ltibia 8.46158
lfoot -36.8508 18.0315
ltoes 25.3976
306
root 9.34164 16.495 0.471236 -137.074 -55.8249 -200.72
lowerback 6.11198 3.14134 3.73596
upperback 0.839195 4.40721 1.65968
thorax -2.40215 2.13852 -0.72742
lowerneck -3.37714 10.3884 3.52069
upperneck -3.91943 13.4464 -20.0388
head 1.10132 6.55654 -6.17206
rclavicle 4.29375e-014 6.36111e-014
rhumerus -17.4297 41.2717 -102.687
rradius 96.6623
rwrist 6.27244
rhand -18.884 -33.2104
rfingers 7.12502
rthumb 7.41713 -63.0604
lclavicle 4.29375e-014 6.36111e-014
lhumerus -42.3426 42.227 44.042
lradius 52.9884
lwrist 39.9854
lhand -53.584 -31.7649
lfingers 7.12502
lthumb -26.0251 -3.52735
rfemur -38.249 4.57051 -2.53338
rtibia 25.1014
rfoot -13.8508 -5.30508
rtoes -28.1909
lfemur -9.67746 -10.646 -6.75417
ltibia 8.28773
lfoot -37.107 17.8488
ltoes 25.5978
307
root 9.34855 16.4942 0.472761 -137.071 -55.8251 -200.806
lowerback 6.19542 3.07002 3.61629
upperback 0.836549 4.30967 1.69322
thorax -2.46659 2.0899 -0.624982
lowerneck -3.60275 10.2793 3.54153
upperneck -3.78825 13.3178 -19.9539
head 1.15698 6.47216 -6.14226
rclavicle -3.33958e-014 -1.145e-013
rhumerus -17.4351 41.3947 -102.782
rradius 96.6462
rwrist 6.09999
rhand -19.2179 -33.144
rfingers 7.12502
rthumb 7.09481 -63.0051
lclavicle -3.33958e-014 -1.145e-013
lhumerus -42.5624 42.4042 43.8048
lradius 52.9351
lwrist 39.9852
lhand -53.6955 -31.8968
lfingers 7.12502
lthumb -26.1318 -3.67499
rfemur -38.1924 4.56583 -2.5812
rtibia 25.0924
rfoot -13.824 -5.33281
rtoes -27.9795
lfemur -9.61836 -10.8172 -6.80472
ltibia 8.24692
lfoot -37.2904 17.8737
ltoes 25.4734
308
root 9.36344 16.5077 0.474443 -137.008 -56.032 -201.366
lowerback 6.80121 2.87912 3.50973
upperback 0.856229 4.07645 1.68823
thorax -2.79966 1.96828 -0.587321
lowerneck -3.7665 10.1598 3.68597
upperneck -3.66258 13.1699 -20.0206
head 1.2194 6.37903 -6.18206
rclavicle -2.38542e-014 1.90833e-014
rhumerus -17.5536 41.4504 -103.009
rradius 96.6363
rwrist 6.02776
rhand -19.5223 -33.0871
rfingers 7.12502
rthumb 6.80095 -62.9578
lclavicle -2.38542e-014 1.90833e-014
lhumerus -42.8066 42.628 43.4924
lradius 52.8452
lwrist 39.8924
lhand -53.6783 -31.9145
lfingers 7.12502
lthumb -26.1153 -3.69027
rfemur -37.5862 4.46841 -2.73794
rtibia 24.9512
rfoot -13.8057 -5.53727
rtoes -28.3208
lfemur -9.45206 -11.352 -7.0236
ltibia 8.39634
lfoot -37.4802 17.7518
ltoes 25.7417
309
root 9.36847 16.5097 0.472185 -137.108 -56.0058 -201.34
lowerback 6.83791 2.86821 3.46619
upperback 0.852649 4.06096 1.69334
thorax -2.82779 1.96058 -0.558851
lowerneck -3.99385 10.0415 3.34788
upperneck -3.45994 13.0476 -19.5704
head 1.24238 6.30266 -5.98587
rclavicle 4.13472e-014 -4.77083e-014
rhumerus -17.7082 41.6119 -103.105
rradius 96.6477
rwrist 5.88104
rhand -19.8109 -33.513
rfingers 7.12502
rthumb 6.52233 -63.3926
lclavicle 4.13472e-014 -4.77083e-014
lhumerus -42.9384 42.6719 43.3395
lradius 52.789
lwrist 39.838
lhand -53.6598 -31.7804
lfingers 7.12502
lthumb -26.0976 -3.55353
rfemur -37.5366 4.43666 -2.66427
rtibia 24.9609
rfoot -13.7829 -5.52234
rtoes -29.0526
lfemur -9.36192 -11.3897 -7.03425
ltibia 8.38787
lfoot -37.5716 17.5977
ltoes 26.36
310
root 9.37337 16.5112 0.47126 -137.137 -55.9764 -201.445
lowerback 6.8818 2.86764 3.44072
upperback 0.890013 4.05815 1.65903
thorax -2.81297 1.95998 -0.580999
lowerneck -4.18722 9.91089 3.18652
upperneck -3.385 12.8804 -19.4776
head 1.2592 6.20485 -5.9324
rclavicle -6.83819e-014 6.36111e-015
rhumerus -17.7516 41.727 -103.082
rradius 96.6663
rwrist 5.68818
rhand -19.8973 -33.9514
rfingers 7.12502
rthumb 6.439 -63.8335
lclavicle -6.83819e-014 6.36111e-015
lhumerus -42.8994 42.624 43.3556
lradius 52.7465
lwrist 39.8525
lhand -53.7354 -31.9534
lfingers 7.12502
lthumb -26.17 -3.73722
rfemur -37.416 4.34369 -2.67534
rtibia 24.9328
rfoot -13.7362 -5.43384
rtoes -29.4965
lfemur -9.24335 -11.4456 -7.13392
ltibia 8.36874
lfoot -37.5537 17.6198
ltoes 26.8348
311
root 9.3799 16.5125 0.472168 -137.113 -55.9163 -201.565
lowerback 6.9229 2.88473 3.45119
upperback 0.914652 4.08131 1.54039
thorax -2.8002 1.97237 -0.712149
lowerneck -4.23821 9.77139 3.34583
upperneck -3.35807 12.6899 -19.4074
head 1.25943 6.10684 -5.94498
rclavicle 1.59028e-014 3.49861e-014
rhumerus -17.7053 41.6937 -103.133
rradius 96.6908
rwrist 5.65535
rhand -20.2937 -34.1295
rfingers 7.12502
rthumb 6.05629 -64.0229
lclavicle 1.59028e-014 3.49861e-014
lhumerus -42.7575 42.528 43.3869
lradius 52.7528
lwrist 39.896
lhand -53.7981 -32.0155
lfingers 7.12502
lthumb -26.23 -3.80827
rfemur -37.3438 4.30144 -2.74513
rtibia 24.8877
rfoot -13.6756 -5.34711
rtoes -29.3892
lfemur -9.1866 -11.3832 -7.25204
ltibia 8.36554
lfoot -37.4976 17.7325
ltoes 26.8466
312
root 9.38633 16.5125 0.471398 -137.152 -55.8362 -201.584
lowerback 6.93933 2.90548 3.4095
upperback 0.92538 4.1057 1.47009
thorax -2.79516 1.9856 -0.76396
lowerneck -4.00083 9.67033 3.58447
upperneck -3.61297 12.501 -19.4689
head 1.14466 6.03839 -6.03118
rclavicle 6.36111e-014 3.18055e-014
rhumerus -17.6463 41.6557 -103.3
rradius 96.6757
rwrist 5.85731
rhand -20.44 -34.202
rfingers 7.12502
rthumb 5.91505 -64.0995
lclavicle 6.36111e-014 3.18055e-014
lhumerus -42.7643 42.5216 43.3642
lradius 52.7996
lwrist 39.8681
lhand -53.6978 -32.0107
lfingers 7.12502
lthumb -26.134 -3.78915
rfemur -37.3151 4.33558 -2.74917
rtibia 24.8622
rfoot -13.6273 -5.33028
rtoes -29.4675
lfemur -9.1206 -11.2204 -7.31623
ltibia 8.34667
lfoot -37.4762 17.7183
ltoes 26.6676
313
root 9.39241 16.5114 0.468985 -137.333 -55.8255 -201.443
lowerback 6.92847 2.89936 3.38163
upperback 0.941866 4.09452 1.51684
thorax -2.77784 1.9804 -0.698373
lowerneck -3.61234 9.64116 3.84736
upperneck -3.98837 12.3886 -19.7328
head 0.995083 6.01866 -6.18819
rclavicle 2.38542e-014 3.18055e-014
rhumerus -17.628 41.7034 -103.529
rradius 96.5971
rwrist 6.13161
rhand -20.1953 -34.1155
rfingers 7.12502
rthumb 6.15131 -64.0062
lclavicle 2.38542e-014 3.18055e-014
lhumerus -42.9299 42.6269 43.2987
lradius 52.8344
lwrist 39.8073
lhand -53.5827 -32.3353
lfingers 7.12502
lthumb -26.0238 -4.09754
rfemur -37.2793 4.42383 -2.61688
rtibia 24.8559
rfoot -13.5948 -5.40558
rtoes -30.2267
lfemur -9.02159 -11.1593 -7.23408
ltibia 8.31377
lfoot -37.4697 17.6597
ltoes 26.5141
314
root 9.39912 16.5107 0.468131 -137.464 -55.8061 -201.338
lowerback 6.90061 2.88121 3.33169
upperback 0.95742 4.06535 1.59196
thorax -2.75619 1.96646 -0.588981
lowerneck -3.70034 9.70934 3.49126
upperneck -3.96298 12.4914 -19.5698
head 0.992827 6.06689 -6.07229
rclavicle -1.59028e-014 -6.36111e-015
rhumerus -17.6502 41.8514 -103.593
rradius 96.6106
rwrist 6.21749
rhand -19.0927 -33.8684
rfingers 7.12502
rthumb 7.21563 -63.7253
lclavicle -1.59028e-014 -6.36111e-015
lhumerus -43.1688 42.6887 43.244
lradius 52.927
lwrist 39.8465
lhand -53.5644 -32.5128
lfingers 7.12502
lthumb -26.0063 -4.27251
rfemur -37.2628 4.53931 -2.57123
rtibia 24.8371
rfoot -13.6143 -5.39188
rtoes -30.2965
lfemur -8.95795 -11.1813 -7.16688
ltibia 8.29814
lfoot -37.3759 17.7938
ltoes 26.4117
315
root 9.40678 16.5101 0.470127 -137.391 -55.6925 -201.456
lowerback 6.88723 2.87412 3.16622
upperback 0.975782 4.04339 1.62289
thorax -2.74421 1.95773 -0.462382
lowerneck -3.76515 9.76155 3.22643
upperneck -3.96761 12.5667 -19.4466
head 0.983615 6.10345 -5.98661
rclavicle 6.36111e-015 -1.01778e-013
rhumerus -17.5905 42.027 -103.452
rradius 96.6861
rwrist 6.12757
rhand -17.3601 -33.6952
rfingers 7.12502
rthumb 8.88786 -63.488
lclavicle 6.36111e-015 -1.01778e-013
lhumerus -43.3387 42.6637 43.258
lradius 53.0401
lwrist 39.9659
lhand -53.5418 -32.2118
lfingers 7.12502
lthumb -25.9846 -3.96832
rfemur -37.2983 4.51765 -2.70051
rtibia 24.85
rfoot -13.6193 -5.26314
rtoes -30.0257
lfemur -8.9438 -11.1377 -7.28541
ltibia 8.29679
lfoot -37.1425 18.121
ltoes 26.5794
316
root 9.41458 16.5095 0.473889 -137.242 -55.681 -201.65
lowerback 6.8806 2.88796 3.11476
upperback 0.969956 4.05839 1.60808
thorax -2.74863 1.96596 -0.45021
lowerneck -3.70243 9.76398 3.2356
upperneck -4.01213 12.561 -19.4985
head 0.964081 6.10567 -6.00838
rclavicle -3.18055e-015 -6.36111e-015
rhumerus -17.5297 42.0471 -103.355
rradius 96.74
rwrist 5.7994
rhand -17.1385 -33.7813
rfingers 7.12502
rthumb 9.10173 -63.5649
lclavicle -3.18055e-015 -6.36111e-015
lhumerus -43.2114 42.4568 43.3922
lradius 53.0487
lwrist 40.1064
lhand -53.5522 -31.6215
lfingers 7.12502
lthumb -25.9946 -3.37949
rfemur -37.2951 4.3372 -2.77546
rtibia 24.8549
rfoot -13.5903 -5.19105
rtoes -30.2481
lfemur -9.01172 -11.095 -7.37849
ltibia 8.33798
lfoot -36.769 18.6489
ltoes 26.4212
317
root 9.42194 16.5096 0.478507 -137.164 -55.8287 -201.726
lowerback 6.85099 2.89946 3.28981
upperback 0.92264 4.08684 1.57623
thorax -2.76561 1.97789 -0.582161
lowerneck -3.85015 9.76129 3.14788
upperneck -3.7487 12.6062 -19.381
head 1.05553 6.1084 -5.94213
rclavicle 2.38542e-014 7.63333e-014
rhumerus -17.5192 41.9026 -103.327
rradius 96.7991
rwrist 5.60788
rhand -17.6991 -34.0255
rfingers 7.12502
rthumb 8.56077 -63.832
lclavicle 2.38542e-014 7.63333e-014
lhumerus -42.9639 42.2401 43.5284
lradius 52.9663
lwrist 40.1693
lhand -53.5593 -31.4925
lfingers 7.12502
lthumb -26.0014 -3.2515
rfemur -37.26 4.15376 -2.70849
rtibia 24.8306
rfoot -13.5797 -5.18767
rtoes -30.6416
lfemur -9.15719 -11.1519 -7.29285
ltibia 8.4352
lfoot -36.5045 19.1187
ltoes 25.8328
318
root 9.4278 16.5095 0.482808 -137.291 -55.9245 -201.539
lowerback 6.77727 2.92172 3.53581
upperback 0.8987 4.13084 1.55133
thorax -2.72852 1.99747 -0.744109
lowerneck -3.7301 9.7468 3.55869
upperneck -3.77211 12.5726 -19.7619
head 1.08193 6.0918 -6.12888
rclavicle 5.24792e-014 6.36111e-015
rhumerus -17.4245 41.7742 -103.28
rradius 96.8418
rwrist 5.73988
rhand -17.6638 -34.1791
rfingers 7.12502
rthumb 8.59476 -63.9842
lclavicle 5.24792e-014 6.36111e-015
lhumerus -42.7572 42.3429 43.5684
lradius 52.8038
lwrist 40.0459
lhand -53.4155 -31.9087
lfingers 7.12502
lthumb -25.8637 -3.64753
rfemur -37.3065 4.15748 -2.54151
rtibia 24.8238
rfoot -13.562 -5.23895
rtoes -31.1702
lfemur -9.24024 -11.062 -7.10359
ltibia 8.47594
lfoot -36.6109 18.859
ltoes 25.9658
